<?xml version="1.0" encoding="UTF-8"?>
<svg version="1.1" xmlns="http://www.w3.org/2000/svg" width="1000" height="1000">
<path d="M0 0 C3.28038861 1.43636794 5.45096894 3.20203745 7.97486496 5.7287693 C8.75962637 6.50954861 9.54438777 7.29032792 10.35292983 8.09476721 C11.20895993 8.956623 12.06499004 9.81847879 12.94696045 10.70645142 C14.31803526 12.07496296 14.31803526 12.07496296 15.71680856 13.47112119 C18.25483558 16.00467166 20.78657667 18.54442373 23.3173492 21.08521795 C26.04715947 23.82365596 28.78273764 26.55632121 31.5176239 29.28968811 C36.2555626 34.02657753 40.98982235 38.76711838 45.72161102 43.51015091 C52.56300776 50.36779385 59.40991298 57.21991497 66.25818017 64.07069604 C77.36858109 75.18547544 88.47450728 86.3047149 99.57763672 97.42675781 C110.36403185 108.23150777 121.15252317 119.03415755 131.94384766 129.83398438 C132.60889678 130.49955894 133.2739459 131.16513351 133.95914802 131.850877 C137.29547897 135.189818 140.63185124 138.5287177 143.96824408 141.86759686 C171.65190709 169.57199715 199.32831569 197.28363546 227 225 C225.6496271 228.01006343 224.14752128 230.10167648 221.81783867 232.42825699 C221.1589782 233.09109955 220.50011774 233.75394211 219.8212918 234.43687081 C218.73278291 235.51664118 218.73278291 235.51664118 217.62228394 236.6182251 C216.85286724 237.38935064 216.08345055 238.16047618 215.2907182 238.95496917 C212.70359142 241.54539805 210.10936644 244.12859999 207.51513672 246.71191406 C205.66221905 248.56426777 203.80974131 250.41706162 201.95767212 252.27026367 C197.96561378 256.26337089 193.9699089 260.25279889 189.97170639 264.23975372 C184.19097872 270.00422972 178.41577929 275.77421816 172.64191569 281.54556844 C163.27413653 290.90896997 153.90189942 300.26789615 144.52685547 309.62402344 C135.41969562 318.71282624 126.31463797 327.80372652 117.21240234 336.89746094 C116.37085776 337.73821735 116.37085776 337.73821735 115.51231228 338.59595874 C112.69781377 341.40784718 109.88335656 344.21977697 107.0689199 347.03172731 C83.71901416 370.36089845 60.36187271 393.68281253 37 417 C38.8931784 421.12390399 41.67825368 423.93280604 44.8828125 427.078125 C45.45707977 427.64956238 46.03134705 428.22099976 46.62301636 428.80975342 C48.4523581 430.62792945 50.28854193 432.43901492 52.125 434.25 C53.36894774 435.48391329 54.6124427 436.71828322 55.85546875 437.953125 C58.89842367 440.97406743 61.94753254 443.98867092 65 447 C70.19520906 442.65773505 75.03585804 438.09423588 79.80021667 433.28639221 C80.55474902 432.52918646 81.30928136 431.77198071 82.08667833 430.99182934 C84.60078511 428.46770498 87.11126892 425.94000795 89.62182617 423.41235352 C91.42889953 421.5968084 93.23623349 419.78152263 95.04380798 417.96647644 C98.42627854 414.56947378 101.80796999 411.17170202 105.18844018 407.77270883 C111.82409408 401.10071206 118.46600428 394.43497493 125.11018372 387.77146912 C126.15744793 386.72109468 127.20470842 385.67071652 128.25196522 384.62033468 C129.83856621 383.02900844 131.42517073 381.4376857 133.01178991 379.8463776 C138.98245426 373.8580168 144.95241835 367.86895839 150.92163086 361.87915039 C151.46689622 361.33200797 152.01216159 360.78486555 152.57395015 360.22114306 C161.42913791 351.33499949 170.27693998 342.44153283 179.12253245 333.54583908 C188.20795389 324.40939518 197.30285739 315.28246667 206.40627462 306.16395324 C212.02044724 300.53979971 217.62677785 294.90805083 223.2233697 289.26640146 C227.50454147 284.95227168 231.79861218 280.6512252 236.09775734 276.35499763 C237.86301219 274.58675762 239.62394368 272.81418992 241.38031006 271.03712082 C243.76914757 268.62137023 246.17269423 266.22130884 248.58073425 263.82472229 C249.28024254 263.10996768 249.97975082 262.39521307 250.70045632 261.65879923 C251.34504841 261.02354569 251.9896405 260.38829214 252.65376568 259.73378849 C253.20740061 259.17771288 253.76103555 258.62163727 254.3314473 258.04871088 C256 257 256 257 257.95858383 257.10339969 C260.51668587 258.22693105 262.02499135 259.64036011 264.00889301 261.61181641 C265.19741036 262.78212355 265.19741036 262.78212355 266.40993816 263.97607327 C267.27443228 264.84248471 268.1389264 265.70889616 269.02961731 266.6015625 C270.41400113 267.97151792 270.41400113 267.97151792 271.8263523 269.36914921 C274.39142788 271.90806036 276.94700713 274.45634818 279.50109422 277.00630689 C282.2558255 279.75343462 285.01905514 282.4919922 287.78106689 285.23179626 C294.45013606 291.85109905 301.10485771 298.48473899 307.75841597 305.11962652 C310.89097609 308.24265035 314.02523803 311.363965 317.15939903 314.48538208 C327.57501148 324.85959993 337.9874702 335.23696349 348.38940907 345.62489319 C349.05523268 346.28980654 349.72105629 346.95471989 350.40705637 347.63978213 C351.07448273 348.30629819 351.74190909 348.97281426 352.42956048 349.65952778 C353.78205457 351.01016639 355.1345546 352.36079905 356.48706055 353.71142578 C357.15794917 354.38138781 357.8288378 355.05134984 358.52005639 355.74161375 C369.39561288 366.60096583 380.29301876 377.438108 391.19991163 388.26597714 C402.39346181 399.37908039 413.56818917 410.51082443 424.72435492 421.66145897 C430.99029556 427.92339758 437.26414787 434.17693304 443.55890846 440.40991211 C448.91807232 445.71663554 454.25989988 451.04006514 459.57975719 456.38620383 C462.29526653 459.11409352 465.01827024 461.83320685 467.76357079 464.53114128 C470.73832677 467.45502619 473.67300108 470.41610798 476.6053009 473.38256836 C477.48094863 474.23113403 478.35659636 475.07969971 479.25877887 475.95397949 C484.826249 481.6769102 484.826249 481.6769102 485.32266575 485.45705503 C485.09563788 487.76699822 484.67262742 489.78241962 484 492 C483.82533075 492.69482658 483.65066151 493.38965316 483.47069925 494.10553509 C482.96635483 496.08123324 482.37211054 498.01328117 481.75708008 499.95727539 C481.52844174 500.70283691 481.29980341 501.44839844 481.06423664 502.21655273 C480.30693068 504.67933711 479.53825796 507.13841518 478.76953125 509.59765625 C478.2254155 511.35942947 477.68204771 513.12143385 477.13937378 514.88365173 C475.97900265 518.64645937 474.81368819 522.40768511 473.64437866 526.16772461 C471.79044083 532.12952318 469.94759343 538.09471276 468.10668945 544.06054688 C466.22429773 550.15911509 464.34126001 556.25747882 462.45433044 562.35464478 C457.26944352 579.10868909 452.13008762 595.87631998 447.01391602 612.65145874 C445.68544047 617.00729395 444.35558424 621.36270677 443.02539062 625.71801758 C442.58209122 627.16949939 442.13879288 628.62098153 441.69549561 630.07246399 C441.47614098 630.79069147 441.25678635 631.50891895 441.03078461 632.2489109 C440.14816122 635.13908164 439.26575963 638.02932007 438.383358 640.91955853 C435.30129524 651.01452454 432.21732665 661.10890777 429.1328125 671.203125 C428.88803225 672.00418167 428.64325199 672.80523834 428.39105415 673.63056946 C427.16987198 677.62692873 425.94866607 681.62328075 424.72744751 685.61962891 C422.52258368 692.83491763 420.31794782 700.050276 418.11328125 707.265625 C412.7421875 724.84375 407.37109375 742.421875 402 760 C137.34 760 -127.32 760 -400 760 C-422.99764352 685.25765857 -422.99764352 685.25765857 -430.25432968 661.47154999 C-431.36989111 657.81565144 -432.48639059 654.16003933 -433.6027832 650.50439453 C-435.47039098 644.38861254 -437.33763688 638.2727202 -439.20458984 632.15673828 C-442.47329275 621.44894693 -445.74319214 610.74152095 -449.01461792 600.03456116 C-449.48044947 598.50993888 -449.94627996 596.98531629 -450.41210938 595.46069336 C-450.6421422 594.70782704 -450.87217503 593.95496073 -451.10917854 593.17928028 C-452.48520974 588.675244 -453.86012511 584.17086892 -455.23413277 579.66621494 C-459.764492 564.81433351 -464.31181131 549.96815708 -468.91337776 535.13816452 C-470.26131059 530.79123484 -471.6050982 526.4430214 -472.94894695 522.09482765 C-474.21198487 518.0102865 -475.48244928 513.9281547 -476.75869083 509.8477211 C-477.71809667 506.7729101 -478.66674195 503.69477782 -479.6171875 500.6171875 C-479.96287277 499.52079956 -480.30855804 498.42441162 -480.66471863 497.2947998 C-481.13014824 495.77771423 -481.13014824 495.77771423 -481.60498047 494.22998047 C-482.01174515 492.92358109 -482.01174515 492.92358109 -482.42672729 491.59078979 C-483.14907882 488.32626848 -483.50321859 486.36198666 -483 483 C-480.85610428 479.9352748 -478.21119927 477.40697988 -475.54803467 474.79286194 C-474.74639712 473.98257001 -473.94475956 473.17227808 -473.11882997 472.33743185 C-470.4198536 469.61680638 -467.6998692 466.91820864 -464.97949219 464.21899414 C-463.04220333 462.27852249 -461.10941351 460.33359134 -459.17637634 458.3888855 C-454.46319426 453.65286107 -449.73398711 448.93315726 -444.99896684 444.21897686 C-441.15246955 440.38875156 -437.31204137 436.5525379 -433.47589874 432.71194267 C-432.93030747 432.16572072 -432.3847162 431.61949878 -431.82259186 431.05672465 C-430.71434906 429.94713583 -429.60612304 428.83753024 -428.49791363 427.72790807 C-418.10275558 417.32080949 -407.68966792 406.93180274 -397.27011922 396.54913174 C-388.32337702 387.63329601 -379.39100561 378.70327616 -370.46923828 369.76245117 C-360.11452458 359.3856445 -349.75190765 349.01684574 -339.37584615 338.66138166 C-338.27034523 337.55804375 -337.16485126 336.45469888 -336.05936432 335.35134697 C-335.51539744 334.80844646 -334.97143057 334.26554595 -334.41097985 333.70619391 C-330.57170043 329.87339354 -326.73808028 326.03498764 -322.90651703 322.19447517 C-318.24032092 317.517763 -313.565267 312.85012787 -308.87855664 308.19397057 C-306.48591781 305.81649947 -304.09897839 303.43396543 -301.71977806 301.04300117 C-299.14449194 298.45637871 -296.5544715 295.88550792 -293.9598999 293.31825256 C-293.20503445 292.55291563 -292.45016901 291.78757869 -291.67242885 290.99904972 C-290.97823572 290.31851204 -290.2840426 289.63797435 -289.56881332 288.93681431 C-288.97189296 288.34124778 -288.37497261 287.74568126 -287.75996375 287.13206726 C-286 286 -286 286 -283.99023914 286.1262306 C-281.68975448 287.13620627 -280.36188378 288.26540466 -278.58736038 290.04349613 C-277.59832163 291.02357516 -277.59832163 291.02357516 -276.5893023 292.02345377 C-275.87334634 292.74814826 -275.15739037 293.47284275 -274.41973877 294.21949768 C-273.65269678 294.9839764 -272.88565479 295.74845511 -272.0953691 296.53609985 C-269.51634952 299.11016179 -266.94822698 301.69483047 -264.37988281 304.27954102 C-262.53759591 306.12267376 -260.6946489 307.9651469 -258.85108948 309.80700684 C-254.87761909 313.77890328 -250.90968352 317.7562607 -246.9454422 321.73736763 C-241.21379479 327.49338407 -235.47389278 333.24111017 -229.73193476 338.98683905 C-220.41648651 348.30885506 -211.10775907 357.63755252 -201.80322266 366.97045898 C-192.76409259 376.03712118 -183.72182066 385.10063083 -174.67529297 394.15991211 C-174.11777569 394.71821756 -173.56025841 395.27652301 -172.98584667 395.85174681 C-170.1889595 398.65254905 -167.39201033 401.45328936 -164.59503031 404.25399888 C-141.38706377 427.49307147 -118.18999067 450.74298926 -95 474 C-91.21053812 472.23447138 -88.5896988 469.86021844 -85.68066406 466.90771484 C-84.90437904 466.1318679 -84.90437904 466.1318679 -84.1124115 465.34034729 C-82.40869711 463.63524329 -80.71217022 461.92317232 -79.015625 460.2109375 C-77.83350593 459.025087 -76.65094355 457.83967826 -75.46795654 456.6546936 C-72.35971272 453.53882362 -69.25752263 450.41699366 -66.15655518 447.29388428 C-62.98951498 444.10636381 -59.81678613 440.9245168 -56.64453125 437.7421875 C-50.42410597 431.50033024 -44.21006463 425.25216515 -38 419 C-39.34772314 415.99785879 -40.84267719 413.90811622 -43.16654396 411.58736038 C-43.82192103 410.92800122 -44.4772981 410.26864205 -45.15253508 409.5893023 C-46.23520755 408.51536835 -46.23520755 408.51536835 -47.3397522 407.41973877 C-48.10508534 406.65269678 -48.87041848 405.88565479 -49.65894353 405.0953691 C-52.23225096 402.51875968 -54.81265605 399.94937736 -57.39306641 397.37988281 C-59.23613198 395.5373812 -61.07875763 393.69443944 -62.92097473 391.85108948 C-66.89175219 387.87926316 -70.86617603 383.91111606 -74.84309769 379.9454422 C-80.59305637 374.21173538 -86.33748659 368.47251599 -92.08058111 362.73193476 C-101.39844598 353.41844748 -110.72076873 344.10943559 -120.04589844 334.80322266 C-129.10455572 325.7629225 -138.16111073 316.72052482 -147.21484375 307.67529297 C-147.77288648 307.11777569 -148.3309292 306.56025841 -148.90588231 305.98584667 C-151.70539675 303.1889423 -154.50486989 300.39199658 -157.30432248 297.59503031 C-180.52981408 274.39027322 -203.76254134 251.19277325 -227 228 C-222.24598754 222.28270923 -217.15347781 217.01501845 -211.88845825 211.76820374 C-210.98086663 210.85975769 -210.07327501 209.95131164 -209.13818061 209.01533693 C-206.63422663 206.50915877 -204.1271854 204.00608946 -201.61960554 201.50353992 C-198.91030173 198.79857039 -196.20390478 196.09069513 -193.49714661 193.38317871 C-188.81217117 188.69767992 -184.12537401 184.01400983 -179.43732071 179.33159065 C-172.65925534 172.56166587 -165.88396582 165.78896861 -159.10934208 159.01560002 C-148.11684314 148.02528757 -137.12211471 137.03720833 -126.12597656 126.05053711 C-115.44674247 115.38048754 -104.76856327 104.70938408 -94.09179688 94.03686523 C-93.43324719 93.37857828 -92.77469751 92.72029132 -92.09619178 92.04205627 C-88.79231862 88.73948819 -85.48846615 85.43689941 -82.18462396 82.13430035 C-54.79295523 54.75299171 -27.39766493 27.37530879 0 0 Z M-4.1859141 76.05683279 C-4.78609824 76.65992978 -5.38628239 77.26302676 -6.00465393 77.88439941 C-6.63845897 78.51735003 -7.27226401 79.15030065 -7.92527527 79.80243158 C-10.06658639 81.94208439 -12.20428382 84.08531244 -14.34204102 86.22851562 C-15.86904803 87.75580446 -17.39627478 89.28287363 -18.92370605 90.80973816 C-23.0848478 94.97059174 -27.24288841 99.13453218 -31.40040326 103.29900932 C-35.74016874 107.64500513 -40.08274615 111.98818929 -44.42503357 116.33166504 C-52.65413217 124.56387791 -60.88067728 132.79863768 -69.10632128 141.03430223 C-78.46816885 150.407308 -87.83283935 159.77749116 -97.19775498 169.14743137 C-116.46832581 188.42846875 -135.73532635 207.71307056 -155 227 C-151.07653379 231.69592274 -146.99713924 236.14574117 -142.65982056 240.46043396 C-142.05032826 241.07078068 -141.44083596 241.68112741 -140.8128742 242.30996948 C-138.78858245 244.33589638 -136.76075962 246.35824993 -134.73291016 248.38061523 C-133.2737007 249.83954237 -131.81471191 251.29869023 -130.35592651 252.75804138 C-126.4082302 256.70602391 -122.45746426 260.65092152 -118.5061307 264.59526324 C-114.37236002 268.72277112 -110.24143213 272.85312215 -106.11019897 276.98316956 C-98.29255743 284.79770641 -90.47237086 292.60969121 -82.65126169 300.42075735 C-73.74484035 309.31599078 -64.84126759 318.21407311 -55.93793035 327.11239326 C-37.62844979 345.41142895 -19.3154034 363.70689259 -1 382 C3.71017137 378.06542275 8.17091231 373.97187733 12.49839783 369.62185669 C13.1128281 369.00828084 13.72725838 368.39470499 14.36030775 367.76253593 C16.40005421 365.72442478 18.43622717 363.6827821 20.47241211 361.64111328 C21.94119133 360.17205174 23.41019128 358.70321084 24.87939453 357.23457336 C28.85423569 353.26001844 32.82599186 349.2823937 36.79719234 345.3042016 C40.95272755 341.14240383 45.11110569 336.98344861 49.2691803 332.82418823 C57.13684105 324.95342271 65.00194978 317.08011213 72.86613995 309.20587909 C81.82183182 300.23899952 90.78037242 291.27496834 99.73915088 282.31117272 C118.16260061 263.87727797 136.58247831 245.43981739 155 227 C151.07733395 222.30605409 146.99980996 217.85549392 142.66654968 213.53956604 C142.05776295 212.92921932 141.44897622 212.31887259 140.8217414 211.69003052 C138.79978031 209.66410969 136.77429858 207.64174762 134.7487793 205.61938477 C133.29120024 204.16044952 131.83383375 202.70130188 130.37666321 201.24195862 C126.43313026 197.29387966 122.4864564 193.34895474 118.53906226 189.40473676 C114.40872334 185.27693317 110.28082878 181.14668633 106.15254211 177.01683044 C99.22678335 170.08925464 92.29892337 163.16378539 85.36987305 156.23950195 C77.34832031 148.22340383 69.33039382 140.20369214 61.31431645 132.18211895 C54.433696 125.29696945 47.55113996 118.41375937 40.66694385 111.53218502 C36.55403598 107.42083942 32.44181455 103.30881336 28.33133507 99.19503975 C24.47339444 95.33422301 20.61303987 91.4758367 16.75076103 87.61935997 C15.32963847 86.19956586 13.90937764 84.77890864 12.49001694 83.35735321 C10.56181306 81.42644146 8.63059572 79.49859699 6.6985321 77.57154846 C6.12967732 77.00046295 5.56082253 76.42937744 4.97472972 75.84098631 C0.32881618 71.21865117 0.44425421 71.4436761 -4.1859141 76.05683279 Z M252.8140859 333.05683279 C252.21390176 333.65992978 251.61371761 334.26302676 250.99534607 334.88439941 C250.36154103 335.51735003 249.72773599 336.15030065 249.07472473 336.80243158 C246.93341361 338.94208439 244.79571618 341.08531244 242.65795898 343.22851562 C241.13095197 344.75580446 239.60372522 346.28287363 238.07629395 347.80973816 C233.9151522 351.97059174 229.75711159 356.13453218 225.59959674 360.29900932 C221.25983126 364.64500513 216.91725385 368.98818929 212.57496643 373.33166504 C204.34586783 381.56387791 196.11932272 389.79863768 187.89367872 398.03430223 C178.53183115 407.407308 169.16716065 416.77749116 159.80224502 426.14743137 C140.53167419 445.42846875 121.26467365 464.71307056 102 484 C105.93457725 488.71017137 110.02812267 493.17091231 114.37814331 497.49839783 C114.99171916 498.1128281 115.60529501 498.72725838 116.23746407 499.36030775 C118.27557522 501.40005421 120.3172179 503.43622717 122.35888672 505.47241211 C123.82794826 506.94119133 125.29678916 508.41019128 126.76542664 509.87939453 C130.73998156 513.85423569 134.7176063 517.82599186 138.6957984 521.79719234 C142.85759617 525.95272755 147.01655139 530.11110569 151.17581177 534.2691803 C159.04657729 542.13684105 166.91988787 550.00194978 174.79412091 557.86613995 C183.76100048 566.82183182 192.72503166 575.78037242 201.68882728 584.73915088 C220.12272203 603.16260061 238.56018261 621.58247831 257 640 C261.71017137 636.06542275 266.17091231 631.97187733 270.49839783 627.62185669 C271.1128281 627.00828084 271.72725838 626.39470499 272.36030775 625.76253593 C274.40005421 623.72442478 276.43622717 621.6827821 278.47241211 619.64111328 C279.94119133 618.17205174 281.41019128 616.70321084 282.87939453 615.23457336 C286.85423569 611.26001844 290.82599186 607.2823937 294.79719234 603.3042016 C298.95272755 599.14240383 303.11110569 594.98344861 307.2691803 590.82418823 C315.13684105 582.95342271 323.00194978 575.08011213 330.86613995 567.20587909 C339.82183182 558.23899952 348.78037242 549.27496834 357.73915088 540.31117272 C376.16260061 521.87727797 394.58247831 503.43981739 413 485 C409.06622018 480.29180673 404.97455931 475.83031286 400.62858582 471.50160217 C400.01571553 470.8871719 399.40284525 470.27274162 398.77140313 469.63969225 C396.73562275 467.59995173 394.69632111 465.56377032 392.65698242 463.52758789 C391.18955127 462.05880057 389.72233268 460.58980084 388.25531006 459.12060547 C384.28491859 455.14566776 380.31138589 451.17388433 376.33713317 447.20280766 C372.17876708 443.04697682 368.02284524 438.88870282 363.86653137 434.7308197 C356.89369418 427.75616544 349.91875568 420.78361778 342.94262695 413.81225586 C334.8665427 405.74162614 326.79408453 397.66738292 318.72347564 389.59127814 C311.79614644 382.6594199 304.86688165 375.72950106 297.9359768 368.80121797 C293.79512326 364.66192671 289.65495616 360.52195494 285.51653099 356.38023567 C281.63232556 352.49315412 277.74570613 348.60850295 273.85716248 344.72576141 C272.42636457 343.29629196 270.9964284 341.8659594 269.56739235 340.43472862 C267.62605134 338.49067976 265.68169673 336.54969797 263.73649597 334.60951233 C263.16375024 334.03453587 262.5910045 333.45955941 262.00090283 332.86715943 C257.34028425 328.2300346 257.46064961 328.42734093 252.8140859 333.05683279 Z M-288.19826698 359.95217133 C-289.11821638 360.87396431 -290.03816578 361.79575729 -290.98599243 362.7454834 C-291.75422177 363.51114947 -291.75422177 363.51114947 -292.5379709 364.29228354 C-294.26399728 366.01499869 -295.98274873 367.74479699 -297.70166016 369.47460938 C-298.93303719 370.70655017 -300.16485403 371.93805149 -301.39707947 373.16914368 C-304.75052163 376.52200996 -308.09774421 379.88102487 -311.44392443 383.24113655 C-314.93841545 386.74809579 -318.43853804 390.24942492 -321.93807983 393.75134277 C-328.56835194 400.38784117 -335.19350763 407.02942319 -341.81686246 413.67282438 C-349.35575946 421.23404468 -356.90030881 428.78961416 -364.44534993 436.34470272 C-379.96988631 451.89016713 -395.4872728 467.44275186 -411 483 C-409.35081122 487.24124154 -406.19528173 490.07695754 -403.02694702 493.21356201 C-402.40862177 493.83359612 -401.79029651 494.45363022 -401.15323412 495.09245324 C-399.07742206 497.17156296 -396.99453606 499.24343771 -394.91162109 501.31542969 C-393.42323077 502.80325596 -391.93528052 504.29152259 -390.44773865 505.78019714 C-386.40493203 509.8235785 -382.35598058 513.8607559 -378.30591917 517.89686871 C-374.07559285 522.11470795 -369.85091483 526.33819678 -365.62564087 530.56109619 C-357.62215686 538.55835949 -349.61358742 546.55051008 -341.60319006 554.54084802 C-332.48450746 563.63719004 -323.37149089 572.73919939 -314.2589519 581.84169531 C-295.5122772 600.5674546 -276.75847857 619.28606574 -258 638 C-254.17367115 636.41956625 -251.75526634 634.00170566 -248.84942627 631.0899353 C-248.34373163 630.58594951 -247.83803699 630.08196372 -247.31701827 629.56270564 C-245.62485125 627.87383115 -243.93992866 626.17791096 -242.25488281 624.48193359 C-241.04291516 623.26940178 -239.8305069 622.05731023 -238.61769104 620.84562683 C-235.32634924 617.55485933 -232.04121448 614.25795754 -228.75714588 610.95993376 C-225.32407266 607.51436626 -221.88534276 604.0744538 -218.44720459 600.63394165 C-211.93740936 594.11792783 -205.43272958 587.59683207 -198.92986465 581.07390273 C-191.52635995 573.64805085 -184.11718201 566.22787062 -176.7075181 558.80816531 C-161.46535013 543.54508675 -146.23033366 528.2748869 -131 513 C-132.64964463 508.76327272 -135.79722536 505.92449634 -138.95959473 502.78643799 C-139.57650885 502.16640388 -140.19342298 501.54636978 -140.82903147 500.90754676 C-142.90016033 498.82843213 -144.97837495 496.75654925 -147.05664062 494.68457031 C-148.54177209 493.19672931 -150.02647763 491.70846304 -151.51078796 490.21980286 C-155.54524869 486.17621312 -159.58602392 482.13898889 -163.6282177 478.10313129 C-167.85169323 473.88471119 -172.07029611 469.66142287 -176.28967285 465.43890381 C-183.37457755 458.35035894 -190.46369283 451.26604549 -197.55517578 444.18408203 C-205.76483521 435.98531562 -213.96725328 427.77935753 -222.1659627 419.56964231 C-229.1966962 412.52984741 -236.23130158 405.49393938 -243.26918745 398.46129489 C-247.47656577 394.25704152 -251.6825647 390.05143215 -255.88508606 385.8423233 C-259.83347744 381.88817548 -263.78668913 377.93891235 -267.74375343 373.99344444 C-269.19918976 372.54066348 -270.65290676 371.08615781 -272.10481834 369.6298542 C-274.07878005 367.6504703 -276.05872818 365.6772824 -278.04040527 363.70562744 C-278.62074854 363.12082273 -279.20109181 362.53601801 -279.79902124 361.93349195 C-283.68907297 357.55705159 -283.68907297 357.55705159 -288.19826698 359.95217133 Z M-5.08985996 457.96401882 C-5.97663349 458.8481846 -6.86340701 459.73235038 -7.77705246 460.64330906 C-8.7724393 461.64085846 -9.76777903 462.63845486 -10.76307678 463.63609314 C-11.81142676 464.68329238 -12.85999488 465.73027329 -13.90876383 466.77705294 C-16.8047712 469.66886052 -19.69762046 472.56380986 -22.58998501 475.45926034 C-25.70409093 478.57561751 -28.8210587 481.6891099 -31.93766785 484.80296326 C-38.04844241 490.90927816 -44.15649444 497.01830948 -50.26359279 503.12830084 C-55.2245505 508.09151183 -60.18647718 513.05375212 -65.14910698 518.01529121 C-66.20631638 519.07227076 -66.20631638 519.07227076 -67.28488354 520.15060343 C-68.71643776 521.58183795 -70.14799424 523.01307021 -71.57955294 524.44430024 C-85.02079728 537.88268922 -98.458968 551.32414841 -111.89610075 564.76664842 C-123.43982213 576.31483788 -134.98616299 587.86040283 -146.53442383 599.40405273 C-159.92699064 612.79127478 -173.31794233 626.18010896 -186.70629972 639.57154089 C-188.13243397 640.99799371 -189.55857032 642.42444443 -190.98470879 643.85089302 C-192.03739232 644.90380796 -192.03739232 644.90380796 -193.11134218 645.97799392 C-198.0702382 650.93775539 -203.03029789 655.89635131 -207.99080086 660.85450554 C-214.03136052 666.89226808 -220.07015061 672.93179369 -226.10664017 678.97362559 C-229.18986917 682.05949281 -232.27391092 685.14453642 -235.36010361 688.22743988 C-238.18040478 691.04478052 -240.99842203 693.86438405 -243.81456607 696.68587989 C-244.83855311 697.71099217 -245.86340091 698.73524542 -246.88915325 699.75859129 C-248.27371622 701.14015269 -249.65495626 702.52504194 -251.03598118 703.91014004 C-251.80703082 704.68135203 -252.57808046 705.45256402 -253.37249523 706.24714607 C-255.11340308 707.7234844 -255.11340308 707.7234844 -255 709 C-87.03 709 80.94 709 254 709 C250.48951166 704.90443027 247.16946215 701.04443825 243.39139843 697.26555729 C242.51618674 696.38773785 241.64097504 695.5099184 240.73924178 694.60549837 C239.78292807 693.65134602 238.82656678 692.69724136 237.87016296 691.74317932 C236.84253563 690.71439836 235.81512616 689.68539975 234.78791457 688.65620369 C231.97805239 685.8421818 229.16509798 683.0312692 226.35160387 680.2208792 C223.3130544 677.18459714 220.27738982 674.14543307 217.24134827 671.10664368 C211.3002803 665.16113436 205.35651854 659.21832518 199.41177907 653.27648712 C194.58314802 648.45011524 189.75549486 643.62276724 184.92853737 638.7947216 C184.24134944 638.10738045 183.55416152 637.42003929 182.84614972 636.71186961 C181.45018641 635.31558658 180.05422536 633.91930131 178.65826652 632.52301382 C165.57751792 619.43941556 152.49370898 606.35888114 139.40884808 593.27939575 C128.17113489 582.04615612 116.93605456 570.8102888 105.70288086 559.57250977 C92.66060756 546.52489196 79.61672275 533.47888872 66.57023937 520.43548054 C65.18095208 519.0465118 63.79166688 517.65754098 62.4023838 516.26856804 C61.7187951 515.58513361 61.03520639 514.90169917 60.33090287 514.19755461 C55.50332027 509.37083709 50.67690243 504.54295676 45.85092735 499.71463203 C39.97800005 493.83890818 34.10331082 487.96495294 28.22631397 482.0932994 C25.22546627 479.09508975 22.22544208 476.09606775 19.22755814 473.09489441 C16.48817452 470.35255033 13.74652845 467.61249033 11.00298963 464.87430345 C10.00632033 463.87875934 9.01050993 462.88235454 8.01560708 461.88504512 C6.67249158 460.53892797 5.32604805 459.19613379 3.97939587 457.85355473 C3.22966289 457.1039841 2.47992991 456.35441347 1.70747775 455.58212858 C-1.48516717 452.62386176 -2.36520697 455.23993941 -5.08985996 457.96401882 Z M-406 563 C-403.80650672 572.28591764 -401.12773887 581.39330914 -398.30859375 590.50390625 C-397.84558524 592.00866909 -397.38287547 593.51352388 -396.92044067 595.01846313 C-395.938403 598.21243105 -394.95449519 601.40581397 -393.96902466 604.59872437 C-392.42472588 609.60237713 -390.88462536 614.60731524 -389.34545898 619.61254883 C-388.82423639 621.30741956 -388.30301141 623.00228955 -387.78178406 624.69715881 C-387.52291601 625.53894243 -387.26404797 626.38072605 -386.99733543 627.24801826 C-386.20908838 629.8106992 -385.42042931 632.37325303 -384.63166809 634.93577576 C-379.58157154 651.34479034 -374.56771861 667.76474702 -369.5625 684.1875 C-367.066875 692.375625 -364.57125 700.56375 -362 709 C-328.34 709 -294.68 709 -260 709 C-263.9042773 704.44500982 -267.7594712 700.09548239 -271.99177551 695.88124084 C-272.56381027 695.30764609 -273.13584504 694.73405134 -273.72521418 694.14307493 C-275.62280184 692.24153145 -277.52390415 690.34354332 -279.42504883 688.44555664 C-280.79395898 687.07529013 -282.1626566 685.70481126 -283.53115845 684.33413696 C-287.23296479 680.62778677 -290.93790898 676.92458842 -294.64357591 673.22209859 C-298.52167036 669.34654041 -302.39731936 665.46853795 -306.27336121 661.59092712 C-312.77541416 655.08705749 -319.27956738 648.58529379 -325.78491211 642.0847168 C-333.31568121 634.55940309 -340.84282252 627.0304751 -348.3681162 619.4996863 C-354.828358 613.03491544 -361.29053526 606.57208413 -367.75435275 600.11088842 C-371.61574953 596.25105379 -375.47645994 592.39053915 -379.33542824 588.52827644 C-382.9569856 584.90384292 -386.58095645 581.28184045 -390.20685196 577.66174698 C-391.54089639 576.32903094 -392.87407924 574.99545186 -394.20636177 573.6609745 C-396.01633154 571.84829667 -397.82931333 570.03868817 -399.6431427 568.22987366 C-400.17697895 567.69380668 -400.71081521 567.15773971 -401.26082832 566.60542828 C-403.28584571 564.10903505 -403.28584571 564.10903505 -406 563 Z M403.07581705 566.79043955 C402.23390506 567.63569762 402.23390506 567.63569762 401.37498474 568.49803162 C400.48553047 569.38514591 400.48553047 569.38514591 399.57810742 570.2901817 C397.57498085 572.28929271 395.57547941 574.29199149 393.57592773 576.29467773 C392.14743497 577.72181671 390.71872928 579.14874258 389.28982544 580.57546997 C385.39715904 584.46355944 381.50768432 588.35482738 377.61888766 592.24678683 C373.55910837 596.3090884 369.49690061 600.36896033 365.43507385 604.42921448 C358.61287271 611.24959353 351.79278917 618.07208479 344.97387695 624.89575195 C337.07718585 632.79788575 329.17689854 640.69641043 321.27473301 648.59306949 C314.50435271 655.35891977 307.73591326 662.12670701 300.96910816 668.89613301 C296.92138999 672.94541457 292.8729889 676.99400713 288.82284355 681.04086113 C285.01627699 684.84455059 281.2121429 688.65065579 277.40991592 692.45868301 C276.0094776 693.86044981 274.60817612 695.26135485 273.20597649 696.66135979 C271.30101778 698.56361038 269.39912719 700.46887455 267.49803162 702.37498474 C266.93452623 702.9362594 266.37102085 703.49753406 265.79043955 704.07581705 C263.18094749 706.18523891 263.18094749 706.18523891 262 709 C295.66 709 329.32 709 364 709 C371.05157743 686.11082 371.05157743 686.11082 378.09375 663.21875 C378.32527267 662.46549942 378.55679535 661.71224884 378.79533386 660.93617249 C380.0275985 656.92689325 381.25971007 652.91756702 382.49169922 648.90820312 C383.50479745 645.61125181 384.51816112 642.31438224 385.53173828 639.01757812 C388.33167486 629.9099221 391.1290859 620.80150013 393.92058372 611.69125366 C395.14073723 607.70932443 396.3620297 603.72775357 397.58624268 599.74707031 C398.74379441 595.98291442 399.89799069 592.21774558 401.04969788 588.45179749 C401.47298065 587.06970334 401.897429 585.68796552 402.32316589 584.30662537 C404.49872729 577.2451993 406.53062777 570.24379897 408 563 C405.85873174 563 404.51174608 565.36189498 403.07581705 566.79043955 Z " fill="#FFFFFF" transform="translate(499,120)"/>
</svg>
